<?xml version="1.0" encoding="UTF-8" standalone="no"?><!DOCTYPE svg PUBLIC "-//W3C//DTD SVG 1.1//EN" "http://www.w3.org/Graphics/SVG/1.1/DTD/svg11.dtd"><svg width="100%" height="100%" viewBox="0 0 8334 8334" version="1.1" xmlns="http://www.w3.org/2000/svg" xmlns:xlink="http://www.w3.org/1999/xlink" xml:space="preserve" xmlns:serif="http://www.serif.com/" style="fill-rule:evenodd;clip-rule:evenodd;stroke-miterlimit:10;"><g id="layer1"><path d="M6835.724,7691.521l-5291.075,0c-444.308,0 -804.463,-360.154 -804.463,-804.463l0,-5291.075c0,-444.308 360.154,-804.463 804.463,-804.463l5290.994,0c444.308,0 804.463,360.154 804.463,804.463l0,5290.994c0.081,444.389 -360.074,804.543 -804.382,804.543Zm-5035.548,-5697.889l1854.536,2479.728l-1866.224,2016.074l420.046,0l1633.914,-1765.143l1320.109,1765.143l1429.332,0l-1958.923,-2619.179l1737.091,-1876.623l-420.046,0l-1504.7,1625.611l-1215.803,-1625.611l-1429.332,0Z" style="stroke:#fff;stroke-width:8.06px;"/><path d="M2417.87,2303.084l656.629,0l2899.612,3876.978l-656.629,0l-2899.612,-3876.978Z" style="stroke:#fff;stroke-width:8.06px;"/></g></svg>