<?xml version="1.0" encoding="UTF-8" standalone="no"?><!DOCTYPE svg PUBLIC "-//W3C//DTD SVG 1.1//EN" "http://www.w3.org/Graphics/SVG/1.1/DTD/svg11.dtd"><svg width="100%" height="100%" viewBox="0 0 3334 3334" version="1.1" xmlns="http://www.w3.org/2000/svg" xmlns:xlink="http://www.w3.org/1999/xlink" xml:space="preserve" xmlns:serif="http://www.serif.com/" style="fill-rule:evenodd;clip-rule:evenodd;stroke-linejoin:round;stroke-miterlimit:2;"><g><path d="M2384.894,801.297c-91.143,0 -159.5,68.357 -159.5,159.5c0,91.143 68.357,159.5 159.5,159.5c91.143,0 159.5,-68.357 159.5,-159.5c0,-91.143 -68.357,-159.5 -159.5,-159.5Z" style="fill-rule:nonzero;"/><path d="M1667.144,1006.369c-375.964,0 -672.179,307.607 -672.179,672.179c0,364.572 307.607,672.179 672.179,672.179c364.572,0 672.179,-307.607 672.179,-672.179c0,-364.572 -296.214,-672.179 -672.179,-672.179Zm0,1105.108c-239.25,0 -432.929,-193.679 -432.929,-432.929c0,-239.25 193.679,-432.929 432.929,-432.929c239.25,0 432.929,193.679 432.929,432.929c0,239.25 -193.679,432.929 -432.929,432.929Z" style="fill-rule:nonzero;"/><path d="M2214.001,300.011l-1082.322,0c-467.107,0 -831.679,364.572 -831.679,820.286l0,1082.322c0,455.715 364.572,820.286 820.286,820.286l1082.322,0c455.715,0 820.286,-364.572 820.286,-820.286l0,-1082.322c11.393,-455.715 -353.179,-820.286 -808.893,-820.286Zm558.25,1914.001c0,307.607 -250.643,569.643 -569.643,569.643l-1082.322,0c-307.607,0 -569.643,-250.643 -569.643,-569.643l0,-1082.322c0,-307.607 250.643,-569.643 569.643,-569.643l1082.322,0c307.607,0 569.643,250.643 569.643,569.643l0,1082.322Z" style="fill-rule:nonzero;"/></g></svg>